<?xml version="1.0" encoding="UTF-8"?>
<svg width="1025px" height="586px" viewBox="0 0 1025 586" version="1.1" xmlns="http://www.w3.org/2000/svg" xmlns:xlink="http://www.w3.org/1999/xlink">
    <!-- Generator: Sketch 61.2 (89653) - https://sketch.com -->
    <title>Content tagging</title>
    <desc>Created with Sketch.</desc>
    <defs>
        <circle id="path-1" cx="231.721068" cy="231.5" r="231.5"></circle>
    </defs>
    <g id="Content-tagging" stroke="none" stroke-width="1" fill="none" fill-rule="evenodd" transform="translate(1.000000, 0.000000)">
        <g id="Group" transform="translate(506.278932, 290.500000) rotate(140.000000) translate(-506.278932, -290.500000) translate(274.278932, 59.000000)">
            <mask id="mask-2" fill="white">
                <use xlink:href="#path-1"></use>
            </mask>
            <use id="Oval" fill="#24AE60" xlink:href="#path-1"></use>
            <circle id="Oval" fill="#71D49C" mask="url(#mask-2)" cx="231.721068" cy="231.5" r="231.5"></circle>
            <path d="M231.221068,232 L80.7210682,24 C132.387735,-11.3333333 182.554402,-29 231.221068,-29 C231.221068,4 231.221068,91 231.221068,232 Z" id="Path-3" fill="#24AE60" mask="url(#mask-2)"></path>
            <path d="M231.221068,232 L-4.77893175,312 C-32.4455984,188.333333 -3.94559842,92.3333333 80.7210682,24 C121.721068,80.6666667 171.887735,150 231.221068,232 Z" id="Path-4" fill="#387452" mask="url(#mask-2)"></path>
            <circle id="Oval" fill="#FFFFFF" mask="url(#mask-2)" cx="231.221068" cy="232" r="117"></circle>
        </g>
        <text id="Protocol-10%" font-family="Roboto-Bold, Roboto" font-size="30" font-weight="bold" line-spacing="46" fill="#363636">
            <tspan x="734.024902" y="446">Protocol</tspan>
            <tspan x="762.713867" y="492">10%</tspan>
        </text>
        <text id="Publisher-20%" font-family="Roboto-Bold, Roboto" font-size="30" font-weight="bold" line-spacing="46" fill="#363636">
            <tspan x="736.347168" y="162">Publisher</tspan>
            <tspan x="772.213867" y="208">20%</tspan>
        </text>
        <text id="Token-Owner-70%" font-family="Roboto-Bold, Roboto" font-size="30" font-weight="bold" line-spacing="46" fill="#363636">
            <tspan x="64.2924805" y="273">Token Owner</tspan>
            <tspan x="123.713867" y="319">70%</tspan>
        </text>
    </g>
</svg>