<?xml version="1.0" encoding="UTF-8"?>
<svg width="216px" height="204px" viewBox="0 0 216 204" version="1.1" xmlns="http://www.w3.org/2000/svg" xmlns:xlink="http://www.w3.org/1999/xlink">
    <!-- Generator: Sketch 61.2 (89653) - https://sketch.com -->
    <title>logo2</title>
    <desc>Created with Sketch.</desc>
    <g id="logo2" stroke="none" stroke-width="1" fill="none" fill-rule="evenodd">
        <g id="Group-6">
            <polyline id="Rectangle" fill="#24AE60" points="59.2048198 0 95.2048198 0 91.4627928 36 55.4627928 36"></polyline>
            <polyline id="Rectangle" fill="#24AE60" points="143.20482 0 179.20482 0 175.462793 36 139.462793 36"></polyline>
            <polyline id="Rectangle" fill="#24AE60" points="54.8391216 42 90.8391216 42 87.0970946 78 51.0970946 78"></polyline>
            <polyline id="Rectangle" fill="#24AE60" points="12.8391216 42 48.8391216 42 45.0970946 78 9.09709458 78"></polyline>
            <polyline id="Rectangle" fill="#24AE60" points="138.839122 42 174.839122 42 171.097095 78 135.097095 78"></polyline>
            <polyline id="Rectangle" fill="#24AE60" points="180.839122 42 216.839122 42 213.097095 78 177.097095 78"></polyline>
            <polyline id="Rectangle" fill="#24AE60" points="4.10772522 126 40.1077252 126 36.3656982 162 0.365698193 162"></polyline>
            <polyline id="Rectangle" fill="#24AE60" points="172.107725 126 208.107725 126 204.365698 162 168.365698 162"></polyline>
            <polyline id="Rectangle" fill="#2A2A2A" points="50.4734234 84 86.4734234 84 82.7313964 120 46.7313964 120"></polyline>
            <polyline id="Rectangle" fill="#2A2A2A" points="134.473423 84 170.473423 84 166.731396 120 130.731396 120"></polyline>
            <polyline id="Rectangle" fill="#24AE60" points="46.1077252 126 82.1077252 126 78.3656982 162 42.3656982 162"></polyline>
            <polyline id="Rectangle" fill="#2A2A2A" points="96.8391216 42 132.839122 42 129.097095 78 93.0970946 78"></polyline>
            <polyline id="Rectangle" fill="#2A2A2A" points="88.1077252 126 124.107725 126 120.365698 162 84.3656982 162"></polyline>
            <polyline id="Rectangle" fill="#24AE60" points="130.107725 126 166.107725 126 162.365698 162 126.365698 162"></polyline>
            <polyline id="Rectangle" fill="#24AE60" points="41.742027 168 77.742027 168 74 204 38 204"></polyline>
            <polyline id="Rectangle" fill="#24AE60" points="125.742027 168 161.742027 168 158 204 122 204"></polyline>
        </g>
    </g>
</svg>